<svg xmlns="http://www.w3.org/2000/svg" width="12042" height="3371" viewBox="0 0 12042 3371" fill="none"><path d="M8837.22 3308.43L9235.32 2721.3L9234.27 2718.13L8943.88 2704.4L8910.09 2850.13H8860.46L8875.25 2652.66L8962.88 2657.95H9379.99V2702.29L8984 3292.61L8985.06 3296.82L9226.88 3314.77L9256.44 3315.84C9271.92 3315.84 9285.65 3309.33 9297.64 3296.28C9309.59 3283.28 9319.09 3265.32 9326.14 3242.44C9333.17 3219.57 9338.45 3190.87 9341.98 3156.37L9388.44 3165.87C9395.47 3178.55 9400.94 3194.22 9404.81 3212.87C9408.66 3231.53 9410.61 3251.77 9410.61 3273.59C9410.61 3296.82 9401.46 3316.19 9383.16 3331.67C9364.85 3347.16 9333.53 3354.9 9289.18 3354.9H8836.17L8837.22 3308.43ZM7887.94 3314.77L7940.74 3309.49C7955.52 3308.1 7965.72 3304.57 7971.36 3298.93C7976.99 3293.3 7979.79 3282.03 7979.79 3265.15V2703.35L7887.94 2698.07V2657.95H8315.6L8390.58 2652.66L8391.63 2837.46H8337.78L8325.11 2712.86L8177.27 2700.18C8167.41 2698.79 8157.89 2698.07 8148.76 2698.07C8133.98 2698.07 8121.64 2701.07 8111.79 2707.05C8101.93 2713.04 8097.02 2725.52 8097.02 2744.53V2955.73L8334.61 2942V3016.98L8097.02 2997.97V3303.15L8169.88 3307.38C8205.08 3310.21 8240.26 3312.31 8275.48 3313.71C8290.94 3313.71 8303.63 3309.85 8313.49 3302.1C8323.34 3294.36 8329.33 3283.81 8331.44 3270.42L8347.28 3160.61H8410.64L8391.63 3354.9H7887.94V3314.77ZM6694.7 3314.77L6748.55 3309.49C6763.35 3308.1 6773.36 3304.4 6778.65 3298.4C6783.93 3292.43 6786.57 3283.09 6786.57 3270.42V2703.35L6694.7 2698.07V2657.95H6994.59V2698.07L6940.74 2704.4C6926.65 2705.82 6916.99 2709.52 6911.71 2715.48C6906.43 2721.49 6903.78 2731.16 6903.78 2744.53V2974.75L7278.65 2964.18V2703.35L7186.78 2698.07V2657.95H7486.67V2698.07L7433.87 2703.35C7419.09 2704.76 7409.07 2708.47 7403.77 2714.43C7398.49 2720.43 7395.87 2730.47 7395.87 2744.53V3309.49L7486.67 3314.77V3354.9H7186.78V3314.77L7240.63 3309.49C7256.11 3307.38 7266.32 3303.34 7271.26 3297.34C7276.18 3291.38 7278.65 3280.28 7278.65 3264.09V3034.93L6903.78 3019.09V3309.49L6994.59 3314.77V3354.9H6694.7V3314.77ZM5818.78 3321.63C5767.04 3289.6 5728.32 3246.32 5702.64 3191.74C5676.92 3137.2 5664.09 3076.82 5664.09 3010.64C5664.09 2944.47 5678.69 2883.4 5707.91 2827.43C5737.11 2771.45 5779.35 2726.77 5834.64 2693.31C5889.88 2659.89 5954.48 2643.16 6028.39 2643.16C6112.17 2643.16 6176.58 2654.08 6221.64 2675.89C6242.05 2686.46 6256.65 2698.6 6265.46 2712.33C6274.25 2726.06 6278.66 2744.53 6278.66 2767.76C6278.66 2776.21 6277.77 2785.37 6276.02 2795.22C6274.25 2805.08 6272.66 2813.88 6271.27 2821.62L6217.42 2844.86C6198.41 2788.53 6172.53 2748.94 6139.8 2726.06C6107.06 2703.19 6068.17 2691.73 6023.12 2691.73C5951.3 2691.73 5894.1 2716.21 5851.52 2765.13C5808.92 2814.07 5787.63 2892.02 5787.63 2999.04C5787.63 3094.79 5811.22 3169.94 5858.39 3224.49C5905.55 3279.05 5972.06 3306.32 6057.97 3306.32C6093.87 3306.32 6131.51 3301.41 6170.95 3291.55C6210.37 3281.7 6244.51 3266.9 6273.38 3247.19L6288.17 3286.26C6250.85 3314.42 6207.91 3335.37 6159.33 3349.08C6110.76 3362.82 6061.47 3369.69 6011.5 3369.69C5934.75 3369.69 5870.53 3353.68 5818.78 3321.63ZM4696.83 2787.84L4691.55 2788.9L4692.6 3310.55L4796.08 3314.77V3354.9H4545.83V3314.77L4599.67 3309.49C4614.46 3308.1 4624.49 3304.4 4629.77 3298.4C4635.05 3292.43 4637.68 3281.34 4637.68 3265.15V2703.35L4545.83 2698.07V2657.95H4748.57L4786.57 2721.3L5120.27 3174.32L5124.49 3173.27L5123.44 2703.35L5015.73 2698.07V2657.95H5242.75V2698.07L5212.13 2702.29C5198.75 2704.4 5189.76 2708.8 5185.21 2715.48C5180.62 2722.19 5178.35 2733.62 5178.35 2749.81V3349.62L5130.82 3370.75L4696.83 2787.84ZM3828.29 2496.37C3866.65 2469.62 3895.34 2446.39 3914.35 2426.68L3963.99 2486.87C3968.9 2491.81 3971.37 2497.08 3971.37 2502.72C3971.37 2518.91 3944.97 2534.91 3892.17 2550.76C3839.37 2566.6 3787.27 2577.34 3735.89 2582.96L3722.17 2562.9C3754.54 2545.31 3789.92 2523.13 3828.29 2496.37ZM3895.34 3068.72L3785.52 2779.38H3780.25L3664.1 3074L3666.21 3078.24L3895.34 3068.72ZM3503.58 3301.04C3512.72 3294.02 3520.47 3282.39 3526.81 3266.21L3778.14 2671.67L3854.17 2641.04L4108.64 3309.49L4168.85 3315.84V3354.9H3868.94V3314.77L3953.42 3310.55C3970.31 3309.15 3978.76 3303.87 3978.76 3294.72C3978.76 3291.19 3977.7 3286.97 3975.59 3282.03L3919.63 3132.09L3644.03 3121.52L3569.06 3310.55L3676.75 3314.77V3354.9H3460.29V3315.84C3480 3313.02 3494.43 3308.1 3503.58 3301.04ZM2768.1 3351.73C2737.48 3339.77 2711.95 3322.16 2691.55 3298.93L2689.44 3358.07H2631.36V3153.2H2685.22C2698.57 3202.5 2719.53 3242.61 2748.05 3273.59C2776.56 3304.57 2815.1 3320.06 2863.66 3320.06C2885.48 3320.06 2906.6 3316 2927.03 3307.91C2947.43 3299.82 2964.34 3286.79 2977.72 3268.83C2991.07 3250.89 2997.77 3228.18 2997.77 3200.72C2997.77 3171.87 2991.97 3150.57 2980.35 3136.83C2968.74 3123.11 2951.66 3109.92 2929.14 3097.23L2870.01 3064.5C2836.21 3046.91 2805.94 3030.89 2779.19 3016.46C2752.43 3002.03 2729.55 2988.13 2710.56 2974.75C2689.44 2959.95 2672.01 2942.19 2658.28 2921.42C2644.57 2900.66 2637.7 2874.07 2637.7 2841.7C2637.7 2806.5 2645.61 2773.94 2661.45 2744C2677.29 2714.09 2702.27 2689.81 2736.42 2671.15C2770.56 2652.5 2813.32 2643.16 2864.72 2643.16C2907.65 2643.16 2952.38 2650.21 2998.84 2664.27C3045.29 2678.36 3068.52 2708.64 3068.52 2755.09C3068.52 2780.43 3066.05 2801.92 3061.14 2819.52L3008.34 2842.75C2997.77 2807.56 2985.27 2778.68 2970.85 2756.15C2956.41 2733.62 2939.69 2716.73 2920.7 2705.46C2901.69 2694.22 2880.2 2688.56 2856.28 2688.56C2819.66 2688.56 2790.63 2698.43 2769.16 2718.13C2747.68 2737.85 2736.96 2765.3 2736.96 2800.5C2736.96 2839.93 2754.9 2870.21 2790.81 2891.31C2807.7 2901.19 2841.5 2920.53 2892.17 2949.41C2942.16 2972.64 2981.22 2992.69 3009.4 3009.59C3036.85 3025.79 3058.13 3045.85 3073.28 3069.78C3088.41 3093.73 3095.97 3123.63 3095.97 3159.55C3095.97 3223.61 3075.22 3274.64 3033.68 3312.66C2992.13 3350.67 2934.77 3369.69 2861.55 3369.69C2829.88 3369.69 2798.73 3363.69 2768.1 3351.73ZM11437.1 945.917L11194.2 305.969H11182.5L10925.6 957.607L10930.3 966.95L11437.1 945.917ZM10570.6 1459.77C10590.8 1444.21 10608 1418.52 10622 1382.69L11177.8 67.7359L11346 0.00292969L11908.8 1478.45L12042 1492.46V1578.88H11378.7V1490.13L11565.5 1480.77C11602.9 1477.68 11621.6 1466 11621.6 1445.75C11621.6 1437.97 11619.2 1428.63 11614.6 1417.72L11490.8 1086.07L10881.2 1062.71L10715.4 1480.77L10953.6 1490.13V1578.88H10474.8V1492.46C10518.4 1486.26 10550.3 1475.34 10570.6 1459.77ZM9099.2 1490.13L9229.99 1476.1C9259.56 1473.01 9279.04 1465.23 9288.38 1452.75C9297.72 1440.31 9302.4 1415.39 9302.4 1378.02V137.805L9099.2 126.126V37.3729H9774.17V126.126L9638.71 140.14C9609.12 143.271 9588.86 151.446 9577.99 164.664C9567.08 177.908 9561.64 199.338 9561.64 228.894V1462.09C9720.46 1473.01 9857.46 1481.59 9972.7 1487.79C10008.5 1487.79 10036.5 1479.61 10056.8 1463.27C10077 1446.92 10090.2 1423.19 10096.5 1392.03L10133.9 1132.78H10274L10229.6 1578.88H9099.2V1490.13ZM7630.18 1490.13L7746.96 1478.45C7779.67 1475.34 7802.22 1467.58 7814.69 1455.09C7827.14 1442.65 7833.38 1417.72 7833.38 1380.34V137.805L7630.18 126.126V37.3729H8576.08L8741.92 25.6948L8744.24 434.428H8625.12L8597.1 158.825L8270.12 130.798C8248.3 127.692 8227.29 126.126 8207.06 126.126C8174.37 126.126 8147.11 132.761 8125.32 145.979C8103.5 159.223 8092.62 186.853 8092.62 228.894V696.005L8618.12 665.655V831.484L8092.62 789.443V1464.44L8253.79 1473.78C8331.62 1480.02 8409.46 1484.69 8487.33 1487.79C8521.55 1487.79 8549.58 1479.25 8571.41 1462.09C8593.2 1444.98 8606.44 1421.63 8611.11 1392.03L8646.16 1149.13H8786.28L8744.24 1578.88H7630.18V1490.13ZM6695.97 1490.13L6815.08 1478.45C6847.78 1475.34 6869.96 1467.18 6881.64 1453.93C6893.32 1440.72 6899.16 1420.06 6899.16 1392.03V137.805L6695.97 126.126V37.3729H7359.26V126.126L7240.15 140.14C7208.98 143.271 7187.6 151.446 7175.92 164.664C7164.24 177.908 7158.4 199.338 7158.4 228.894V1478.45L7359.26 1490.13V1578.88H6695.97V1490.13ZM6123.77 1569.54C6081.73 1546.18 6042.03 1504.14 6004.66 1443.4L5680.02 906.224L5584.26 770.758C5640.31 761.415 5687.02 752.868 5724.39 745.066C5806.91 713.932 5871.53 671.121 5918.24 616.607C5964.94 562.117 5988.31 497.49 5988.31 422.75C5988.31 335.562 5963.38 265.096 5913.57 211.377C5863.72 157.645 5786.65 130.798 5682.35 130.798C5626.3 130.798 5585.43 138.96 5559.74 155.322C5534.05 171.671 5521.2 193.847 5521.2 221.887V1478.45L5743.08 1490.13V1578.88H5058.76V1487.79L5177.88 1476.1C5201.23 1474.57 5218.35 1470.67 5229.26 1464.44C5240.14 1458.24 5248.3 1448.9 5253.78 1436.41C5259.22 1423.96 5261.96 1404.52 5261.96 1378.02V137.805L5058.76 126.126V37.3729H5691.69C5785.12 37.3729 5872.7 45.1872 5954.44 60.7291C6036.19 76.3081 6108.19 112.1 6170.48 168.168C6232.73 224.222 6263.9 307.535 6263.9 418.079C6263.9 503.727 6226.89 578.876 6152.96 643.466C6078.99 708.093 5970.39 758.309 5827.16 794.114V803.456C5855.17 812.799 5885.91 829.148 5919.4 852.504C5952.88 875.861 5980.49 907.789 6002.32 948.265L6254.56 1354.66C6293.46 1407.61 6332.4 1442.65 6371.34 1459.77C6410.23 1476.92 6455.42 1487.02 6506.8 1490.13V1567.19C6475.63 1578.11 6438.66 1587.06 6395.86 1594.05C6353.03 1601.07 6314.48 1604.57 6280.25 1604.57C6217.96 1604.57 6165.8 1592.9 6123.77 1569.54ZM4404.81 1395.54C4463.96 1334.04 4493.56 1249.56 4493.56 1142.11C4493.56 913.231 4372.11 798.785 4129.22 798.785C4101.19 798.785 4070.02 801.121 4035.79 805.792C4001.53 810.463 3971.94 816.7 3947.04 824.477V1466.76C4006.19 1482.35 4066.16 1490.94 4126.88 1492.46C4253 1489.36 4345.63 1457.06 4404.81 1395.54ZM4346.42 588.579C4385.32 541.867 4404.81 481.948 4404.81 408.724C4404.81 326.219 4382.23 259.257 4337.08 207.861C4291.91 156.489 4222.64 130.798 4129.22 130.798C4082.51 130.798 4040.47 135.866 4003.08 145.979C3965.73 156.117 3947.04 180.641 3947.04 219.551V728.716L4168.92 705.36C4248.33 674.227 4307.48 635.292 4346.42 588.579ZM3484.61 1490.13L3606.05 1478.45C3640.28 1473.78 3662.48 1465.23 3672.62 1452.75C3682.72 1440.31 3687.8 1414.62 3687.8 1375.67V137.805L3484.61 126.126V37.3729H4112.87C4329.27 37.3729 4479.55 71.2393 4563.63 138.96C4647.71 206.705 4689.75 291.956 4689.75 394.71C4689.75 486.62 4658.22 558.204 4595.16 609.6C4532.1 660.983 4441.38 703.025 4323.07 735.723V749.725C4470.98 765.316 4583.48 801.928 4660.55 859.499C4737.61 917.131 4776.16 1009.79 4776.16 1137.44C4776.16 1248.02 4745.8 1335.98 4685.08 1401.38C4624.35 1466.76 4546.11 1512.71 4450.35 1539.16C4354.6 1565.66 4246.76 1578.88 4126.88 1578.88H3484.61V1490.13ZM2662.48 945.917L2419.6 305.969H2407.92L2151.01 957.607L2155.67 966.95L2662.48 945.917ZM1796 1459.77C1816.22 1444.21 1833.38 1418.52 1847.39 1382.69L2403.25 67.7359L2571.4 0.00292969L3134.27 1478.45L3267.4 1492.46V1578.88H2604.11V1490.13L2790.95 1480.77C2828.32 1477.68 2847 1466 2847 1445.75C2847 1437.97 2844.66 1428.63 2839.98 1417.72L2716.21 1086.07L2106.64 1062.71L1940.81 1480.77L2179.02 1490.13V1578.88H1700.24V1492.46C1743.82 1486.26 1775.75 1475.34 1796 1459.77ZM346.841 1506.48C230.821 1436.41 144.009 1341.44 86.415 1221.53C28.7967 1101.65 0 966.95 0 817.47C0 664.885 34.2385 526.673 102.764 402.897C171.265 279.11 268.588 181.821 394.707 110.945C520.839 40.106 667.978 4.67417 836.137 4.67417C1016.73 4.67417 1156.11 27.2601 1254.19 72.4072C1305.58 95.7634 1341.78 121.455 1362.79 149.483C1383.82 177.51 1394.32 219.551 1394.32 275.594C1394.32 294.279 1392.75 314.939 1389.65 337.5C1386.51 360.086 1383.41 380.697 1380.31 399.382L1261.21 450.778C1217.59 319.983 1157.26 230.857 1080.19 183.349C1003.12 135.866 912.39 112.1 808.111 112.1C647.716 112.1 518.491 165.82 420.41 273.27C322.305 380.697 273.259 554.34 273.259 794.114C273.259 932.711 295.446 1054.16 339.822 1158.47C384.209 1262.8 450.76 1343.78 539.523 1401.38C628.261 1459 734.901 1487.79 859.492 1487.79C937.323 1487.79 1002.72 1480.41 1055.68 1465.6C1108.59 1450.82 1135.07 1423.19 1135.07 1382.69V908.559L875.829 896.869V805.792H1464.4V894.545C1437.9 902.36 1419.61 911.292 1409.5 921.405C1399.36 931.543 1393.52 949.06 1392 973.944V1328.97L1415.35 1466.76C1314.12 1513.48 1208.64 1549.33 1098.87 1574.21C989.102 1599.1 882.04 1611.58 777.736 1611.58C606.434 1611.58 462.81 1576.53 346.841 1506.48Z" fill="#6F2277"></path></svg>