<?xml version="1.0" encoding="utf-8"?>
<!-- Generator: Adobe Illustrator 16.0.0, SVG Export Plug-In . SVG Version: 6.00 Build 0)  -->
<!DOCTYPE svg PUBLIC "-//W3C//DTD SVG 1.1//EN" "http://www.w3.org/Graphics/SVG/1.1/DTD/svg11.dtd">
<svg version="1.1" id="Layer_1" xmlns="http://www.w3.org/2000/svg" xmlns:xlink="http://www.w3.org/1999/xlink" x="0px" y="0px"
	 width="245px" height="188.667px" viewBox="0 0 245 188.667" enable-background="new 0 0 245 188.667" xml:space="preserve">
<polygon fill="#EED898" points="135.953,28.836 145.105,21.426 133.407,20.813 136.428,9.542 126.611,15.921 122.388,4.923 
	118.167,15.921 108.352,9.542 111.373,20.813 99.673,21.426 108.826,28.836 99.673,36.246 111.373,36.861 108.352,48.128 
	118.167,41.754 122.388,52.75 126.611,41.754 136.428,48.128 133.407,36.861 145.105,36.246 "/>
<path fill="#1e293b" d="M18.829,132.296c-2.645,0-5.082-0.469-7.363-1.403c-2.285-0.932-4.255-2.282-5.966-3.992
	c-1.713-1.713-3.061-3.735-4.046-6.017C0.469,118.6,0,116.11,0,113.467c0-2.645,0.469-5.137,1.454-7.417
	c0.985-2.283,2.333-4.255,4.046-5.913c1.711-1.66,3.734-3.008,6.016-3.994c2.283-0.986,4.772-1.454,7.417-1.454
	c2.335,0,4.513,0.365,6.535,1.089c2.024,0.729,3.84,1.816,5.449,3.27l-2.75,3.578c-1.192-0.984-2.543-1.814-4.047-2.436
	c-1.503-0.624-3.216-0.936-5.083-0.936c-2.021,0-3.891,0.365-5.602,1.088c-1.712,0.729-3.162,1.714-4.408,3.011
	c-1.245,1.296-2.229,2.8-2.955,4.564c-0.727,1.763-1.091,3.629-1.091,5.652c0,2.021,0.365,3.892,1.091,5.601
	c0.726,1.714,1.71,3.217,2.955,4.516c1.246,1.295,2.748,2.28,4.459,3.007c1.713,0.727,3.58,1.09,5.604,1.09
	c1.866,0,3.579-0.312,5.083-0.934c1.503-0.621,2.851-1.453,4.045-2.438l2.75,3.578c-1.61,1.45-3.425,2.541-5.445,3.268
	c-2.024,0.727-4.202,1.089-6.535,1.089L18.829,132.296z"/>
<rect x="49.216" y="95.105" fill="#1e293b" width="4.721" height="36.825"/>
<polygon fill="#1e293b" points="71.617,99.668 71.617,95.105 97.24,95.105 97.24,99.668 86.762,99.668 86.762,131.931 
	82.044,131.931 82.044,99.668 "/>
<polygon fill="#1e293b" points="119.64,95.105 119.64,127.315 135.773,127.315 135.773,131.931 114.92,131.931 114.92,95.105 "/>
<path fill="#1e293b" d="M184.884,131.931H179.8l-4.564-9.648h-16.595l-4.563,9.648h-5.084l17.946-37.241L184.884,131.931z
	 M173.162,117.925l-6.223-13.173l-6.223,13.173H173.162z"/>
<polygon fill="#1e293b" points="206.712,95.105 206.712,127.315 222.844,127.315 222.844,131.931 201.992,131.931 201.992,95.105 
	"/>
<rect x="240.057" y="95.105" fill="#1e293b" width="4.721" height="36.825"/>
<path fill="#1e293b" d="M77.673,181.693c-0.75,0-1.453-0.128-2.099-0.363c-0.65-0.23-1.22-0.57-1.713-1.01
	c-0.492-0.443-0.88-1.014-1.168-1.688c-0.285-0.674-0.414-1.452-0.414-2.308h2.361c0,0.517,0.076,0.96,0.231,1.35
	c0.156,0.389,0.362,0.699,0.648,0.958c0.285,0.259,0.598,0.442,0.961,0.568c0.362,0.133,0.752,0.185,1.167,0.185
	c0.88,0,1.606-0.261,2.177-0.753c0.573-0.491,0.855-1.269,0.855-2.335v-13.279h2.361v13.435c0,0.857-0.128,1.61-0.416,2.256
	c-0.286,0.65-0.673,1.196-1.166,1.636c-0.494,0.442-1.062,0.755-1.713,0.958c-0.648,0.209-1.322,0.312-2.048,0.312L77.673,181.693z"
	/>
<path fill="#1e293b" d="M101.244,181.745c-1.321,0-2.54-0.233-3.682-0.699c-1.141-0.467-2.126-1.141-2.984-1.998
	c-0.853-0.855-1.528-1.867-2.02-3.008c-0.495-1.143-0.729-2.386-0.729-3.709s0.235-2.568,0.729-3.708
	c0.492-1.143,1.167-2.128,2.02-2.956c0.857-0.83,1.869-1.506,3.011-1.998c1.14-0.492,2.385-0.725,3.707-0.725
	c1.323,0,2.568,0.232,3.709,0.725s2.152,1.142,3.009,1.97c0.855,0.832,1.529,1.818,2.021,2.959c0.493,1.14,0.727,2.385,0.727,3.708
	s-0.234,2.566-0.727,3.708c-0.492,1.141-1.166,2.128-2.021,2.98c-0.857,0.858-1.842,1.507-2.984,1.972
	c-1.141,0.467-2.36,0.703-3.68,0.703L101.244,181.745z M101.349,179.411c1.012,0,1.945-0.181,2.8-0.545s1.606-0.881,2.23-1.53
	c0.621-0.647,1.114-1.4,1.477-2.256c0.364-0.856,0.547-1.789,0.547-2.804c0-1.009-0.184-1.944-0.547-2.825
	c-0.362-0.881-0.855-1.632-1.477-2.28c-0.624-0.65-1.35-1.168-2.202-1.532c-0.858-0.361-1.792-0.543-2.804-0.543
	c-1.01,0-1.945,0.182-2.8,0.543c-0.856,0.364-1.582,0.856-2.203,1.506c-0.624,0.648-1.117,1.399-1.479,2.281
	c-0.364,0.883-0.544,1.815-0.544,2.828c0,1.012,0.181,1.944,0.544,2.802c0.362,0.856,0.855,1.606,1.479,2.255
	c0.621,0.648,1.375,1.141,2.23,1.504s1.788,0.545,2.8,0.545L101.349,179.411z"/>
<polygon fill="#1e293b" points="116.465,162.994 119.214,162.994 124.401,171.293 129.589,162.994 132.335,162.994 125.593,173.602 
	125.593,181.409 123.207,181.409 123.207,173.602 "/>
<path fill="#1e293b" d="M153.755,181.407h-2.543l-2.281-4.822h-8.298l-2.282,4.822h-2.543l8.974-18.62L153.755,181.407z
	 M147.892,174.405l-3.11-6.586l-3.11,6.586H147.892z"/>
<path fill="#1e293b" d="M166.613,181.668c-1.35,0-2.541-0.284-3.577-0.857c-1.039-0.571-1.843-1.245-2.387-2.021l1.79-1.558
	c0.438,0.571,1.037,1.063,1.761,1.507c0.728,0.439,1.532,0.646,2.438,0.646c1.064,0,1.92-0.231,2.542-0.699
	c0.621-0.467,0.934-1.114,0.934-1.92c0-0.854-0.26-1.528-0.777-2.021c-0.52-0.492-1.271-0.961-2.258-1.402l-1.684-0.727
	c-1.401-0.595-2.414-1.323-3.062-2.179c-0.648-0.855-0.958-1.866-0.958-3.033c0-0.699,0.154-1.321,0.465-1.893
	c0.312-0.571,0.728-1.063,1.219-1.479c0.492-0.415,1.062-0.727,1.712-0.933c0.648-0.209,1.323-0.314,1.998-0.314
	c1.088,0,2.074,0.209,2.93,0.624c0.854,0.415,1.609,0.987,2.23,1.737l-1.66,1.66c-0.493-0.571-1.012-1.012-1.555-1.322
	c-0.547-0.312-1.219-0.466-2.023-0.466c-0.389,0-0.753,0.049-1.09,0.153c-0.338,0.105-0.647,0.262-0.934,0.467
	c-0.284,0.208-0.493,0.467-0.646,0.779c-0.156,0.31-0.234,0.648-0.234,1.037c0,0.676,0.207,1.246,0.622,1.739
	c0.415,0.492,1.114,0.956,2.1,1.398l1.688,0.726c0.621,0.289,1.191,0.598,1.711,0.936c0.519,0.338,0.986,0.699,1.374,1.116
	c0.388,0.413,0.699,0.882,0.907,1.398c0.206,0.519,0.312,1.089,0.312,1.738c0,0.753-0.129,1.452-0.389,2.074
	s-0.649,1.166-1.166,1.609c-0.52,0.44-1.144,0.776-1.87,1.035c-0.726,0.261-1.528,0.39-2.437,0.39L166.613,181.668z"/>
</svg>
